<?xml version="1.0" standalone="no"?>
<!DOCTYPE svg PUBLIC "-//W3C//DTD SVG 20010904//EN"
 "http://www.w3.org/TR/2001/REC-SVG-20010904/DTD/svg10.dtd">
<svg version="1.0" xmlns="http://www.w3.org/2000/svg"
 width="1920.000000pt" height="1920.000000pt" viewBox="0 0 1920.000000 1920.000000"
 preserveAspectRatio="xMidYMid meet">

<g transform="translate(0.000000,1920.000000) scale(0.100000,-0.100000)"
fill="#000000" stroke="none">
<path d="M5007 17115 c-115 -374 -251 -1216 -306 -1910 -37 -449 -40 -1183 -7
-1445 37 -292 116 -621 251 -1055 93 -298 205 -678 201 -682 -12 -12 -225 284
-328 457 -166 276 -275 532 -356 840 -49 186 -72 371 -74 588 l-1 167 -34
-105 c-80 -255 -116 -479 -116 -735 0 -256 27 -429 105 -673 16 -51 26 -97 22
-103 -16 -27 -161 -132 -226 -163 -113 -56 -211 -77 -380 -83 l-147 -6 22 -31
c40 -57 170 -187 236 -237 121 -90 288 -162 466 -200 33 -6 63 -15 68 -19 4
-3 -26 -51 -66 -106 -377 -511 -794 -825 -1247 -938 -113 -28 -214 -36 -297
-23 -32 6 -53 5 -53 0 0 -6 41 -43 91 -84 268 -216 538 -345 823 -394 49 -8
102 -15 118 -15 29 0 27 -2 -50 -88 -216 -241 -388 -503 -536 -814 -126 -265
-225 -537 -270 -743 -56 -252 -83 -316 -152 -370 -26 -19 -45 -35 -42 -35 18
0 160 60 258 109 278 140 588 354 905 623 160 136 259 225 671 604 537 494
823 714 1193 919 210 116 396 190 694 275 214 61 338 85 287 57 -14 -8 -113
-47 -220 -87 -301 -111 -519 -221 -765 -386 -363 -241 -671 -550 -924 -924
-117 -173 -116 -167 -22 -120 90 45 96 47 86 23 -4 -10 -27 -103 -51 -208 -98
-419 -139 -486 -434 -703 -197 -146 -295 -253 -373 -407 -90 -180 -125 -414
-97 -645 27 -216 76 -380 194 -653 41 -95 78 -184 81 -199 9 -34 25 -27 25 10
0 15 9 68 19 117 80 377 364 794 723 1062 224 168 432 264 688 319 120 26 390
26 515 0 534 -111 985 -510 1304 -1153 187 -375 290 -749 346 -1259 42 -386
83 -512 248 -765 41 -63 80 -125 86 -138 l13 -23 -32 18 c-60 35 -189 144
-250 212 -89 98 -180 238 -266 413 -136 274 -218 371 -376 444 -48 22 -87 43
-88 47 0 15 172 -16 294 -53 54 -17 101 -28 104 -25 10 10 -19 150 -49 241
-39 117 -133 296 -217 415 -82 117 -278 316 -391 399 -96 71 -211 129 -323
163 -43 12 -76 28 -75 33 2 6 23 21 48 35 39 22 58 25 174 28 118 4 239 -9
344 -35 23 -6 23 -5 7 19 -21 32 -151 141 -233 197 -85 57 -231 126 -333 159
-74 23 -102 27 -215 27 -116 0 -136 -3 -185 -24 -291 -129 -483 -428 -546
-846 l-7 -50 -8 40 c-13 65 -10 190 7 304 33 231 150 501 317 734 l56 77 -34
0 c-69 0 -273 -32 -386 -60 -297 -75 -561 -218 -765 -413 -153 -145 -237 -272
-285 -427 -33 -104 -33 -279 -1 -395 56 -200 143 -366 311 -588 l66 -89 7 89
c14 157 72 319 166 462 l36 55 12 -108 c31 -273 117 -508 261 -707 30 -43 66
-88 79 -100 l24 -22 0 104 c1 90 18 221 32 235 3 2 18 -24 33 -58 256 -574
825 -1144 1550 -1555 77 -44 230 -131 340 -193 329 -186 500 -304 755 -519
650 -551 1157 -1256 1339 -1866 78 -260 92 -305 100 -305 5 0 12 17 16 38 27
153 137 455 249 687 332 686 889 1308 1581 1766 72 48 231 144 355 214 527
300 644 372 841 521 510 386 929 892 1214 1469 41 83 101 217 134 298 32 82
62 151 65 154 9 10 103 -196 126 -277 27 -94 38 -311 21 -401 -7 -34 -11 -63
-9 -64 6 -7 124 148 198 260 190 288 292 589 293 860 1 156 -15 229 -79 362
-176 368 -727 711 -1264 788 -58 8 -125 15 -148 15 l-44 0 36 -47 c190 -250
311 -496 363 -736 20 -91 24 -377 6 -432 -9 -28 -10 -26 -17 32 -31 276 -212
530 -478 672 -129 70 -201 86 -373 86 -124 0 -164 -4 -232 -22 -92 -26 -199
-73 -290 -130 -67 -42 -202 -144 -203 -154 0 -3 35 3 78 14 109 28 351 30 437
3 69 -21 195 -84 195 -97 0 -5 -19 -9 -43 -9 -63 0 -152 -25 -234 -66 -219
-110 -587 -522 -723 -809 -88 -187 -127 -394 -76 -403 10 -2 52 12 95 31 74
34 273 91 292 85 5 -2 -12 -20 -38 -41 -164 -128 -259 -249 -377 -484 -150
-299 -329 -518 -529 -646 -16 -10 -30 -17 -33 -15 -2 2 17 35 43 73 66 99 157
277 192 378 61 175 85 353 96 712 8 260 20 389 51 549 201 1044 787 1764 1607
1976 250 64 525 80 802 46 200 -24 204 -19 20 33 -537 151 -1057 82 -1481
-194 -531 -346 -947 -1034 -1074 -1778 -10 -62 -22 -144 -26 -181 -4 -37 -10
-63 -14 -59 -4 4 -40 116 -79 247 -43 143 -119 360 -188 535 -227 583 -273
740 -273 947 0 240 95 449 269 588 129 105 193 125 501 166 503 66 585 117
851 520 210 318 263 372 471 480 124 65 128 74 16 34 -113 -41 -198 -87 -281
-153 -96 -76 -164 -159 -278 -336 -165 -257 -261 -359 -404 -426 -84 -39 -147
-54 -384 -89 -306 -45 -446 -90 -560 -177 -79 -61 -138 -135 -182 -228 -64
-134 -74 -185 -74 -390 0 -261 28 -377 212 -865 107 -283 152 -437 208 -702
116 -557 143 -806 111 -1043 -33 -252 -122 -436 -303 -625 -313 -330 -629
-414 -1060 -284 -147 45 -210 45 -385 0 -234 -60 -312 -70 -438 -54 -240 29
-495 182 -687 410 -132 157 -196 271 -250 444 -26 86 -27 97 -27 319 0 194 3
250 22 360 51 292 127 566 306 1105 167 504 213 696 223 940 10 242 -45 409
-176 539 -147 145 -271 190 -646 231 -235 26 -340 50 -447 101 -148 72 -216
145 -363 390 -104 173 -146 229 -228 310 -111 108 -258 195 -429 254 -85 29
-72 30 102 14 231 -21 373 -54 490 -115 137 -72 216 -156 355 -378 198 -316
287 -374 700 -451 248 -46 348 -82 490 -178 219 -147 396 -348 500 -569 55
-117 74 -188 82 -309 13 -202 -47 -437 -178 -696 l-49 -98 40 44 c76 83 221
408 275 618 45 171 27 325 -56 487 -53 104 -76 137 -245 347 -178 222 -201
257 -309 459 -48 91 -108 196 -133 235 -112 169 -296 299 -565 399 -376 141
-906 229 -1527 256 -288 13 -483 30 -455 40 35 13 271 29 600 41 840 31 1477
-67 1795 -276 60 -39 80 -49 85 -38 13 36 4 213 -15 288 -22 87 -92 238 -167
360 l-49 80 -151 5 -150 5 79 135 c48 84 77 143 74 155 -2 11 -13 56 -25 99
-12 44 -19 81 -17 84 3 2 21 -28 41 -68 33 -66 38 -71 49 -54 7 11 66 111 131
224 65 112 126 218 136 235 l19 30 -245 5 -244 5 191 330 c339 586 1103 1911
1361 2358 50 86 93 157 96 157 4 0 53 -83 111 -185 58 -101 107 -184 110 -185
3 0 6 102 7 227 2 258 13 366 50 508 54 206 122 326 256 451 103 96 177 136
357 195 225 73 280 111 280 193 -1 94 -76 191 -282 363 -374 312 -521 554
-660 1083 l-32 124 -13 -64 c-59 -304 -114 -485 -199 -654 -96 -190 -179 -306
-400 -558 -69 -79 -148 -177 -175 -218 -27 -41 -55 -84 -62 -94 -13 -19 -15
-19 -108 3 -191 44 -337 122 -458 244 -77 77 -111 127 -162 232 -62 127 -82
218 -82 365 0 105 4 139 26 210 14 47 24 87 22 89 -11 10 -198 -195 -249 -273
-153 -232 -273 -570 -292 -822 l-7 -87 -231 6 c-243 6 -359 19 -529 62 -55 14
-101 24 -103 22 -7 -6 200 -126 278 -161 111 -50 222 -88 475 -162 464 -135
626 -211 803 -380 254 -243 342 -508 298 -895 -12 -107 -21 -112 -32 -14 -10
83 -50 231 -86 319 -101 242 -319 437 -698 623 -95 47 -175 83 -178 81 -2 -3
28 -27 68 -53 368 -243 561 -448 649 -685 19 -54 24 -84 24 -175 0 -105 -2
-113 -35 -185 -49 -104 -150 -226 -252 -301 -26 -19 -26 -17 17 74 60 129 78
202 77 317 -1 154 -59 294 -187 450 -160 195 -334 332 -917 718 -364 241 -576
412 -872 702 -388 380 -641 722 -798 1080 -65 147 -102 281 -127 458 -10 72
-20 118 -24 107z m177 -997 c242 -556 504 -920 1137 -1581 125 -131 257 -276
292 -323 170 -226 247 -464 234 -723 -14 -286 -140 -501 -385 -657 -87 -56
-298 -174 -311 -174 -18 0 -218 198 -288 285 -191 238 -333 575 -369 878 -6
57 -6 58 17 53 13 -3 72 -15 131 -26 278 -55 502 -170 704 -362 l95 -91 -31
84 c-104 281 -198 463 -597 1144 -340 582 -486 882 -607 1248 -25 75 -53 164
-61 198 -19 72 -35 193 -24 182 4 -5 32 -65 63 -135z m1675 -3365 c70 -14 205
-65 225 -84 6 -6 2 -9 -10 -10 -10 -1 -46 -3 -79 -4 -373 -20 -628 -92 -994
-281 -79 -41 -146 -72 -148 -70 -11 10 191 198 267 248 145 95 379 200 490
218 58 9 156 3 249 -17z m-531 -618 c24 -10 40 -21 35 -25 -13 -13 -110 -37
-253 -64 -231 -44 -368 -96 -790 -301 -277 -134 -359 -171 -335 -148 25 23
408 292 490 344 157 99 340 171 513 204 105 19 283 15 340 -10z m-53 -731 c39
-8 93 -20 120 -28 49 -13 49 -13 20 -21 -246 -61 -281 -72 -399 -131 -104 -53
-190 -111 -386 -263 -287 -223 -462 -328 -695 -419 -187 -72 -463 -142 -640
-161 -139 -16 -405 -25 -405 -14 0 5 33 19 73 32 156 50 429 156 562 220 176
85 272 143 565 345 129 89 276 187 326 218 217 134 430 221 589 241 51 7 197
-4 270 -19z m1257 -1935 l107 -22 6 -66 c10 -98 31 -155 71 -191 52 -45 69
-40 151 46 55 57 77 74 91 69 50 -15 208 -210 198 -243 -9 -26 -51 -48 -138
-71 -300 -78 -512 12 -624 266 -29 65 -74 199 -74 219 0 21 86 18 212 -7z
m-1342 -3388 c0 -30 116 -302 195 -461 147 -295 337 -604 494 -807 77 -99 229
-267 299 -330 58 -53 39 -55 -54 -8 -140 70 -392 288 -526 454 -210 261 -347
559 -403 876 -20 115 -31 326 -16 305 6 -8 11 -21 11 -29z m6765 -211 c-50
-355 -186 -665 -413 -943 -79 -96 -269 -278 -362 -348 -113 -84 -232 -150
-245 -137 -2 2 30 40 73 84 176 182 275 304 400 491 214 320 426 727 523 1005
l34 98 3 -68 c2 -37 -4 -119 -13 -182z m-4525 -1495 c47 -24 69 -75 101 -230
56 -275 130 -435 264 -571 67 -68 159 -134 170 -122 1 2 17 44 36 93 18 50 36
94 40 98 4 5 37 -34 73 -86 67 -97 129 -161 149 -154 11 3 19 26 31 80 9 38
28 34 56 -14 57 -92 81 -120 102 -117 20 3 51 51 84 132 14 37 17 39 28 23 6
-10 33 -53 59 -95 l49 -76 19 24 c10 14 31 53 46 88 15 34 30 62 33 62 3 0 17
-19 32 -43 29 -44 88 -111 92 -105 1 1 20 32 41 68 21 36 63 103 93 150 l54
85 27 -66 c39 -98 68 -139 97 -139 34 0 122 84 183 177 101 151 146 255 185
424 40 180 70 253 115 292 50 42 65 37 58 -21 -12 -106 -229 -698 -322 -882
-43 -86 -143 -158 -265 -193 -176 -50 -400 -71 -698 -64 -308 7 -480 36 -617
104 -130 65 -161 115 -240 384 -20 68 -65 200 -100 294 -92 246 -139 415 -115
415 6 0 24 -7 40 -15z m436 -171 c36 -17 57 -48 68 -100 7 -30 -19 -182 -33
-197 -14 -14 -131 249 -131 294 0 24 48 26 96 3z m1500 -26 c-4 -24 -32 -96
-64 -162 l-56 -119 -15 34 c-9 21 -15 69 -15 126 -1 88 0 93 28 122 29 30 46
37 100 40 28 1 28 0 22 -41z m-1150 -1 c4 -3 -29 -50 -71 -104 -43 -54 -80
-103 -82 -110 -10 -26 -22 -12 -37 45 -9 31 -27 86 -41 121 l-24 64 124 -5
c69 -3 128 -8 131 -11z m964 9 c0 -2 -11 -28 -24 -57 -13 -30 -29 -80 -36
-112 -13 -56 -30 -83 -38 -59 -2 7 -40 58 -84 115 l-80 102 28 6 c31 7 234 11
234 5z m-715 -33 l79 -6 -69 -63 c-39 -35 -77 -64 -86 -64 -8 0 -36 7 -61 16
-48 16 -58 34 -58 106 l0 30 58 -6 c31 -3 93 -9 137 -13z m407 -23 c-6 -78
-17 -91 -95 -105 -32 -6 -40 -2 -105 57 l-71 63 91 7 c50 4 93 10 97 13 3 3
23 5 46 3 39 -3 40 -4 37 -38z m667 -767 c-55 -160 -202 -306 -380 -379 -193
-79 -354 -108 -599 -108 -212 0 -323 16 -487 69 -196 64 -321 141 -406 250
-48 62 -132 204 -124 211 3 3 40 -28 83 -68 98 -91 153 -129 257 -178 175 -82
385 -120 658 -120 453 0 786 115 972 335 21 25 40 45 42 45 2 0 -5 -26 -16
-57z"/>
<path d="M14060 17098 c0 -112 -63 -369 -134 -545 -136 -339 -348 -641 -706
-1007 -280 -287 -583 -549 -858 -743 -76 -53 -193 -137 -262 -186 -483 -348
-743 -638 -806 -903 -9 -38 -19 -75 -21 -83 -6 -23 -92 67 -119 124 -29 61
-32 163 -8 246 64 216 228 375 596 574 81 43 146 81 144 82 -5 5 -201 -65
-294 -105 -314 -135 -531 -345 -582 -561 -17 -73 -8 -239 18 -312 58 -163 166
-324 277 -409 103 -80 207 -117 520 -190 318 -73 424 -110 666 -230 171 -85
284 -156 508 -319 97 -70 195 -140 219 -156 23 -15 41 -29 39 -31 -2 -2 -66
12 -143 31 -417 102 -687 84 -903 -59 -63 -42 -134 -106 -117 -106 4 0 26 13
49 29 58 40 130 74 212 102 99 34 297 34 434 0 164 -41 247 -75 586 -241 121
-59 262 -124 313 -144 169 -66 385 -111 589 -123 62 -3 110 -9 108 -13 -3 -4
-42 -14 -87 -21 -109 -18 -398 -16 -643 5 -332 28 -535 17 -702 -39 -79 -27
-205 -89 -163 -81 335 66 602 -21 1145 -372 492 -319 782 -456 1070 -506 77
-13 79 -14 50 -26 -80 -32 -333 -28 -542 10 -280 50 -455 106 -773 248 -398
176 -517 212 -745 219 -127 4 -163 2 -235 -15 -79 -19 -82 -20 -40 -22 223 -7
456 -97 735 -283 341 -229 685 -501 924 -732 141 -136 273 -283 566 -630 126
-148 290 -337 366 -420 305 -334 592 -559 867 -679 75 -33 282 -106 300 -106
3 0 -16 15 -44 34 -80 54 -101 99 -155 334 -66 288 -230 697 -409 1019 -109
194 -266 426 -428 627 l-145 181 64 7 c314 35 475 82 724 211 113 59 284 167
350 221 l30 25 -50 -15 c-71 -22 -261 -30 -348 -14 -231 40 -496 172 -737 366
-88 71 -420 391 -420 405 0 5 12 11 28 15 189 42 385 151 548 306 75 72 194
220 194 241 0 3 -28 -6 -62 -20 -77 -31 -225 -63 -293 -63 -171 1 -373 86
-528 221 l-39 34 27 60 c37 83 82 263 100 403 37 270 24 543 -36 807 -30 132
-78 300 -84 294 -1 -2 -10 -76 -20 -164 -75 -719 -260 -1218 -604 -1634 -46
-56 -86 -100 -88 -98 -2 3 39 132 91 288 98 294 187 618 230 844 62 325 86
746 68 1197 -11 269 -31 579 -47 723 -49 456 -76 658 -121 930 -41 246 -127
673 -181 895 -18 77 -33 99 -33 48z m-36 -880 c-32 -228 -163 -592 -340 -948
-111 -221 -167 -323 -416 -749 -307 -525 -417 -734 -503 -956 -67 -172 -69
-170 36 -71 204 191 442 312 714 361 50 8 101 18 114 21 24 5 24 5 17 -58 -28
-248 -138 -537 -293 -772 -66 -99 -316 -369 -353 -381 -19 -6 -195 89 -335
181 -202 132 -320 310 -361 546 -33 191 5 435 98 621 75 150 166 264 414 519
630 648 934 1080 1187 1691 21 49 29 47 21 -5z"/>
<path d="M11170 16317 c0 -2 10 -48 21 -103 28 -129 30 -333 5 -449 -55 -253
-183 -499 -345 -664 -90 -92 -159 -140 -301 -209 -147 -72 -206 -124 -280
-247 -24 -40 -24 -40 45 21 167 146 254 195 360 202 62 4 85 -1 195 -37 173
-56 242 -71 335 -71 144 -1 683 95 875 156 137 43 312 124 410 190 75 50 102
76 53 51 -50 -26 -233 -87 -357 -118 -105 -27 -384 -79 -421 -79 -10 0 -13 31
-13 143 -1 161 -23 300 -74 451 -83 249 -228 496 -387 659 -60 62 -121 115
-121 104z"/>
<path d="M9300 13676 c-25 -44 -98 -171 -162 -281 -318 -549 -1258 -2179
-1258 -2182 0 -2 184 -3 409 -3 l409 0 78 137 c44 75 81 140 82 145 2 4 -105
8 -237 8 -133 0 -241 3 -241 8 0 4 30 59 68 123 37 64 254 441 482 837 305
530 418 717 426 709 6 -7 59 -95 117 -197 59 -102 111 -191 116 -198 6 -10 32
27 89 128 l81 141 -163 282 c-89 155 -179 312 -200 349 -21 37 -41 70 -44 72
-4 2 -27 -33 -52 -78z"/>
<path d="M9882 12981 c-111 -193 -202 -353 -202 -357 0 -12 153 -274 160 -274
3 0 59 93 124 206 65 113 122 202 127 197 10 -10 969 -1671 969 -1678 0 -3
-108 -5 -240 -5 -132 0 -240 -3 -240 -6 0 -4 35 -67 77 -140 l78 -134 407 0
c225 0 408 2 408 5 0 2 -285 499 -634 1102 -348 604 -675 1170 -725 1258 -51
88 -96 163 -100 168 -4 4 -98 -150 -209 -342z"/>
<path d="M9210 12668 c-74 -128 -180 -312 -236 -408 -128 -222 -327 -568 -343
-597 l-12 -23 163 0 163 0 199 345 c110 190 202 345 205 345 4 0 96 -155 206
-345 l199 -345 164 0 163 0 -33 58 c-227 398 -694 1202 -698 1202 -3 0 -66
-105 -140 -232z"/>
<path d="M10002 12340 l-80 -139 120 -208 c66 -114 155 -269 199 -344 43 -75
79 -139 79 -142 0 -4 -181 -8 -402 -9 l-403 -3 -77 -130 c-42 -71 -77 -136
-77 -142 -1 -10 151 -13 730 -13 l731 0 -24 43 c-120 212 -709 1227 -713 1227
-1 0 -38 -63 -83 -140z"/>
<path d="M8982 11423 l-363 -628 366 -3 c201 -1 529 -1 730 0 l364 3 -78 135
-78 135 -407 5 -407 5 174 300 c95 165 186 323 202 351 l28 50 -79 137 c-43
75 -81 137 -84 137 -3 0 -169 -282 -368 -627z"/>
<path d="M8276 11048 c-8 -13 -100 -171 -205 -353 l-191 -330 735 -3 c404 -1
1065 -1 1469 0 l734 3 -202 350 -202 350 -163 3 c-129 2 -162 0 -158 -10 2 -7
55 -100 116 -206 61 -107 111 -198 111 -203 0 -5 -400 -9 -975 -9 l-976 0 12
23 c7 12 61 106 121 209 59 103 108 190 108 193 0 3 -72 5 -160 5 -154 0 -160
-1 -174 -22z"/>
<path d="M11362 10467 c-54 -118 -90 -173 -224 -340 -196 -244 -244 -348 -236
-503 4 -81 17 -119 32 -95 4 6 14 49 22 97 27 152 42 184 220 454 154 234 241
406 232 461 -2 14 -17 -11 -46 -74z"/>
<path d="M8150 10251 c0 -5 71 -70 159 -144 296 -254 371 -364 371 -545 0 -82
-13 -139 -70 -317 -67 -208 -75 -320 -31 -448 30 -86 70 -137 261 -327 181
-180 236 -250 334 -428 117 -213 204 -447 326 -872 44 -156 82 -286 84 -287 2
-2 8 29 15 69 38 234 149 556 300 873 140 292 236 448 391 630 200 235 262
372 247 541 -11 114 -90 302 -166 394 -17 22 -16 14 9 -56 75 -212 79 -384 15
-531 -38 -86 -97 -163 -232 -304 -199 -208 -330 -392 -438 -614 -66 -135 -116
-272 -136 -377 -10 -48 -14 -57 -22 -42 -13 23 -12 389 2 579 6 83 11 365 11
628 0 535 2 561 75 780 63 190 135 340 311 648 46 80 84 149 84 153 0 3 -26 6
-58 6 l-59 0 -55 -77 c-142 -198 -216 -334 -274 -500 -16 -46 -32 -83 -35 -83
-3 0 -13 25 -23 56 -50 159 -137 324 -267 506 l-70 98 -529 0 c-305 0 -530 -4
-530 -9z"/>
<path d="M9380 10252 c0 -4 16 -32 36 -61 53 -78 109 -195 134 -278 12 -40 24
-73 26 -73 2 0 4 95 4 210 l0 210 -100 0 c-55 0 -100 -3 -100 -8z"/>
<path d="M12701 10139 c-164 -127 -334 -192 -708 -270 l-188 -39 235 4 c262 4
314 13 437 72 40 19 99 56 131 83 63 52 166 175 160 191 -1 5 -32 -13 -67 -41z"/>
<path d="M12930 9763 c-843 -46 -1437 -174 -1800 -389 -108 -64 -235 -184
-298 -282 -27 -42 -82 -140 -123 -217 -101 -193 -135 -245 -302 -452 -175
-218 -218 -280 -269 -390 -96 -204 -90 -352 28 -672 52 -142 160 -354 205
-403 l39 -43 -65 135 c-117 246 -161 413 -159 610 1 94 7 145 23 205 63 235
256 498 496 678 167 125 286 173 550 222 421 79 500 130 710 464 163 259 262
346 466 415 94 31 213 51 434 71 158 14 345 42 345 51 0 4 -187 2 -280 -3z
m-1127 -355 c-38 -128 -104 -255 -162 -316 -96 -100 -250 -146 -409 -123 -102
15 -201 48 -231 77 l-25 23 39 57 c48 73 121 151 158 171 l29 14 71 -75 c85
-90 110 -97 162 -42 35 38 55 97 64 190 l6 61 95 22 c52 12 125 22 162 22 l66
1 -25 -82z"/>
<path d="M13692 9217 c432 -485 811 -1242 868 -1732 40 -340 47 -366 124 -465
64 -82 91 -128 136 -234 50 -118 78 -242 88 -393 l7 -116 64 139 c182 398 228
531 277 799 26 142 26 465 0 585 -19 92 -80 256 -124 334 -25 47 -33 52 -127
93 -160 69 -271 129 -405 218 -173 115 -279 208 -540 471 -243 245 -411 394
-445 394 -3 0 31 -42 77 -93z"/>
<path d="M4358 8835 c-79 -74 -163 -132 -298 -205 -167 -90 -246 -144 -316
-214 -107 -107 -176 -235 -210 -389 -29 -128 -13 -462 22 -474 6 -2 25 37 43
86 37 103 94 224 151 319 48 82 111 159 303 377 172 195 264 315 311 405 30
57 60 140 53 146 -1 1 -28 -22 -59 -51z"/>
<path d="M14773 8854 c17 -100 132 -265 401 -569 235 -266 304 -371 397 -609
26 -66 51 -122 56 -123 13 -5 32 109 39 234 14 244 -58 449 -214 615 -73 77
-140 124 -327 228 -147 82 -226 136 -304 208 l-53 50 5 -34z"/>
<path d="M9240 5784 c-443 -23 -617 -134 -597 -380 6 -83 50 -174 116 -242
l50 -51 84 39 c115 54 160 59 228 28 72 -33 113 -69 138 -121 26 -54 27 -93 2
-133 -17 -29 -84 -64 -97 -52 -2 3 6 28 18 57 l22 52 -19 37 c-40 74 -161 105
-235 61 -64 -40 -76 -79 -41 -147 56 -110 349 -316 507 -356 85 -22 233 -21
315 2 175 49 452 249 511 370 21 45 21 45 2 80 -37 68 -135 92 -221 53 -72
-33 -92 -87 -59 -160 11 -23 16 -44 13 -47 -12 -12 -76 18 -92 42 -56 86 3
202 132 261 71 33 118 27 232 -27 l85 -41 53 58 c29 31 66 82 81 113 24 49 27
66 27 156 0 95 -2 103 -30 150 -37 59 -115 116 -199 143 -124 42 -241 52 -611
55 -192 2 -379 2 -415 0z"/>
</g>
</svg>
